<svg xmlns="http://www.w3.org/2000/svg" width="77.424" height="74.198" viewBox="0 0 77.424 74.198"><g transform="translate(0 51.616)"><path d="M74.2,360.065H65.607a11.217,11.217,0,0,0-21.53,0H3.226a3.226,3.226,0,0,0,0,6.452H44.077a11.217,11.217,0,0,0,21.53,0H74.2a3.226,3.226,0,0,0,0-6.452ZM54.842,368.13a4.839,4.839,0,1,1,4.839-4.839A4.845,4.845,0,0,1,54.842,368.13Z" transform="translate(0 -352)" fill="#fff"/></g><path d="M74.2,18.732H65.607a11.217,11.217,0,0,0-21.53,0H3.226a3.226,3.226,0,0,0,0,6.452H44.077a11.217,11.217,0,0,0,21.53,0H74.2a3.226,3.226,0,0,0,0-6.452ZM54.842,26.8a4.839,4.839,0,1,1,4.839-4.839A4.845,4.845,0,0,1,54.842,26.8Z" transform="translate(0 -10.667)" fill="#fff"/><g transform="translate(0 25.808)"><path d="M74.2,189.4H33.347a11.217,11.217,0,0,0-21.53,0H3.226a3.226,3.226,0,1,0,0,6.452h8.591a11.217,11.217,0,0,0,21.53,0H74.2a3.226,3.226,0,0,0,0-6.452Zm-51.616,8.065a4.839,4.839,0,1,1,4.839-4.839A4.845,4.845,0,0,1,22.582,197.464Z" transform="translate(0 -181.334)" fill="#fff"/></g></svg>