<svg xmlns="http://www.w3.org/2000/svg" width="63.998" height="75.154" viewBox="0 0 63.998 75.154"><path d="M63.923,20.39l0-.058c-.033-.722-.054-1.486-.068-2.335a7.965,7.965,0,0,0-7.5-7.8c-8.641-.482-15.325-3.3-21.037-8.867l-.049-.046a4.81,4.81,0,0,0-6.537,0l-.049.046c-5.711,5.567-12.4,8.385-21.037,8.867A7.965,7.965,0,0,0,.146,18C.134,18.841.111,19.6.079,20.332l0,.136C-.093,29.279-.3,40.245,3.367,50.2A37.846,37.846,0,0,0,12.446,64.34,47.5,47.5,0,0,0,30.214,74.85a5.5,5.5,0,0,0,.728.2,5.378,5.378,0,0,0,2.115,0,5.519,5.519,0,0,0,.731-.2A47.528,47.528,0,0,0,51.537,64.333a37.9,37.9,0,0,0,9.08-14.146C64.3,40.2,64.091,29.218,63.923,20.39ZM56.479,48.662c-3.869,10.491-11.767,17.7-24.146,22.024a1.108,1.108,0,0,1-.14.038.99.99,0,0,1-.388,0,1.1,1.1,0,0,1-.139-.037c-12.392-4.321-20.3-11.521-24.162-22.012C4.124,39.5,4.315,29.432,4.485,20.552V20.5c.034-.763.057-1.563.07-2.441A3.54,3.54,0,0,1,7.892,14.6a38.692,38.692,0,0,0,13.133-2.889,34.359,34.359,0,0,0,10.7-7.19.407.407,0,0,1,.546,0,34.371,34.371,0,0,0,10.7,7.19A38.694,38.694,0,0,0,56.108,14.6a3.539,3.539,0,0,1,3.336,3.466c.013.883.036,1.682.07,2.44C59.683,29.393,59.87,39.468,56.479,48.662Zm0,0" transform="translate(0 0.001)" fill="#fff"/><path d="M109.128,128.41a18.73,18.73,0,1,0,18.729,18.729A18.751,18.751,0,0,0,109.128,128.41Zm0,33.049a14.32,14.32,0,1,1,14.319-14.32A14.336,14.336,0,0,1,109.128,161.459Zm0,0" transform="translate(-77.129 -109.561)" fill="#fff"/><path d="M168.5,212.637l-8.7,8.7-2.361-2.361a2.2,2.2,0,0,0-3.119,3.118l3.921,3.921a2.2,2.2,0,0,0,3.118,0l10.259-10.259a2.2,2.2,0,1,0-3.119-3.118Zm0,0" transform="translate(-131.116 -180.874)" fill="#fff"/></svg>