<svg xmlns="http://www.w3.org/2000/svg" width="47.597" height="47.597" viewBox="0 0 47.597 47.597"><path d="M22.621,9.014H7.747a.734.734,0,0,0,0,1.467H22.621a.734.734,0,0,0,0-1.467Z" transform="translate(-1.798 -2.31)" fill="#fff"/><ellipse cx="2.298" cy="2.216" rx="2.298" ry="2.216" transform="translate(37.104 5.239)" fill="#fff"/><path d="M44.622,0H2.975A2.975,2.975,0,0,0,0,2.975V11.9a2.975,2.975,0,0,0,2.975,2.975H44.622A2.975,2.975,0,0,0,47.6,11.9V2.975A2.975,2.975,0,0,0,44.622,0ZM46.11,11.9a1.489,1.489,0,0,1-1.487,1.487H2.975A1.489,1.489,0,0,1,1.487,11.9V2.975A1.489,1.489,0,0,1,2.975,1.487H44.622A1.489,1.489,0,0,1,46.11,2.975Z" fill="#fff"/><path d="M22.621,31.014H7.747a.734.734,0,0,0,0,1.467H22.621a.734.734,0,0,0,0-1.467Z" transform="translate(-1.798 -7.948)" fill="#fff"/><circle cx="2.298" cy="2.298" r="2.298" transform="translate(37.104 21.493)" fill="#fff"/><path d="M44.622,22H2.975A2.975,2.975,0,0,0,0,24.975V33.9a2.975,2.975,0,0,0,2.975,2.975H44.622A2.975,2.975,0,0,0,47.6,33.9V24.975A2.975,2.975,0,0,0,44.622,22ZM46.11,33.9a1.489,1.489,0,0,1-1.487,1.487H2.975A1.489,1.489,0,0,1,1.487,33.9V24.975a1.489,1.489,0,0,1,1.487-1.487H44.622a1.489,1.489,0,0,1,1.487,1.487Z" transform="translate(0 -5.638)" fill="#fff"/><path d="M22.621,53.014H7.747a.734.734,0,0,0,0,1.467H22.621a.734.734,0,0,0,0-1.467Z" transform="translate(-1.798 -13.587)" fill="#fff"/><ellipse cx="2.298" cy="2.216" rx="2.298" ry="2.216" transform="translate(37.104 37.911)" fill="#fff"/><path d="M44.622,44H2.975A2.975,2.975,0,0,0,0,46.975V55.9a2.975,2.975,0,0,0,2.975,2.975H44.622A2.975,2.975,0,0,0,47.6,55.9V46.975A2.975,2.975,0,0,0,44.622,44ZM46.11,55.9a1.489,1.489,0,0,1-1.487,1.487H2.975A1.489,1.489,0,0,1,1.487,55.9V46.975a1.489,1.489,0,0,1,1.487-1.487H44.622a1.489,1.489,0,0,1,1.487,1.487Z" transform="translate(0 -11.277)" fill="#fff"/></svg>