<svg xmlns="http://www.w3.org/2000/svg" width="73.522" height="73.522" viewBox="0 0 73.522 73.522"><g transform="translate(0 0.002)"><path d="M53.111,40.275l-4.9,4.9h0L14.346,11.314l2.6-2.6L6.157.014,0,6.171,8.7,16.962l2.6-2.6L45.163,48.223l-4.9,4.9,6.992,6.991L60.1,47.266Z" transform="translate(0 -0.014)" fill="#fff"/><path d="M363.133,350.3l-12.85,12.85,7.71,7.71a9.086,9.086,0,0,0,12.85-12.85Z" transform="translate(-299.985 -299.999)" fill="#fff"/></g><path d="M37.21,262.922,27.173,252.885l-7.349,7.348A15.275,15.275,0,1,0,29.862,270.27ZM18.772,278.314a4.944,4.944,0,1,1,0-6.992A4.943,4.943,0,0,1,18.772,278.314Z" transform="translate(0 -216.572)" fill="#fff"/><g transform="translate(36.311)"><path d="M289.083,9.213l-1.2-3.066-7.707,7.707-3.112-.834-.834-3.112L283.936,2.2,280.87,1A14.514,14.514,0,0,0,261.6,18.446l-8.727,8.728L262.91,37.211l8.727-8.728a14.514,14.514,0,0,0,17.445-19.27Z" transform="translate(-252.873 0.001)" fill="#fff"/></g></svg>