<svg xmlns="http://www.w3.org/2000/svg" width="72.411" height="71.393" viewBox="0 0 72.411 71.393"><path d="M67.973,42.17a7.067,7.067,0,0,0-2.3-11.544l2.9-2.893a7.072,7.072,0,0,0,.012-10.013l-.075-.075a7.029,7.029,0,0,0-3.646-1.937,7.137,7.137,0,0,0,.125-1.317,7.024,7.024,0,0,0-2.071-5.008l-.092-.092a7.076,7.076,0,0,0-8.571-1.106,7.041,7.041,0,0,0-1.632-2.544L52.56,5.58a7.08,7.08,0,0,0-10,0l-18.9,18.9,2.347-9.694a7.732,7.732,0,1,0-15.054-3.541l-.322,1.41A83.312,83.312,0,0,1,3.068,32.8a27.074,27.074,0,0,0-2.8,16.339,26.852,26.852,0,0,0,26.571,23h.018a26.67,26.67,0,0,0,18.992-7.889l5.41-5.425Zm-25.2,19a22.354,22.354,0,0,1-15.918,6.612h-.015a22.506,22.506,0,0,1-22.27-19.27,22.7,22.7,0,0,1,2.342-13.7,87.644,87.644,0,0,0,7.954-21.2l.322-1.41a3.387,3.387,0,0,1,4.461-2.428,3.384,3.384,0,0,1,2.132,3.979l-4.168,17.21a2.178,2.178,0,0,0,3.648,2.048L45.632,8.653a2.729,2.729,0,0,1,3.853,0l.061.061a2.726,2.726,0,0,1,0,3.855L34.573,27.541a2.173,2.173,0,1,0,3.073,3.073L55.9,12.364a2.726,2.726,0,0,1,3.855,0l.092.092a2.726,2.726,0,0,1,0,3.86c-5.448,5.427-12.9,12.846-18.293,18.221a2.173,2.173,0,1,0,3.067,3.079c3.626-3.612,13.5-13.451,16.973-16.9a2.731,2.731,0,0,1,3.851,0l.075.075a2.726,2.726,0,0,1-.005,3.86c-5.285,5.264-13.655,13.6-18.893,18.823a2.173,2.173,0,1,0,3.067,3.079l9.964-9.927,1.417-1.4A2.726,2.726,0,0,1,64.9,39.093L48.192,55.744Z" transform="translate(0 -3.512)" fill="#fff"/><path d="M367.005,356.619a2.173,2.173,0,0,0-4-1.71,14.609,14.609,0,0,1-8.768,8.076,2.173,2.173,0,1,0,1.375,4.123,18.955,18.955,0,0,0,11.389-10.489Z" transform="translate(-301.655 -302.877)" fill="#fff"/><path d="M395.856,381.729A2.173,2.173,0,0,0,393,382.87a20.353,20.353,0,0,1-11.784,11.093,2.173,2.173,0,1,0,1.467,4.091A24.7,24.7,0,0,0,397,384.582,2.173,2.173,0,0,0,395.856,381.729Z" transform="translate(-324.762 -326.789)" fill="#fff"/></svg>