<svg xmlns="http://www.w3.org/2000/svg" width="44.966" height="71.393" viewBox="0 0 44.966 71.393"><path d="M18.195-1279.536a13.146,13.146,0,0,0-5.533,1.791c-.212.128-.669.452-1.026.719l-.647.491-.123-.452a2.441,2.441,0,0,0-2.036-2.053,5.457,5.457,0,0,0-2.41.207c-3.575,1.2-6.392,7.156-6.191,13.1.073,2.237.279,3.425,1.422,8.283a30.241,30.241,0,0,1,1.088,8.227,55.6,55.6,0,0,1-.658,8.115,51.745,51.745,0,0,0-.708,10.464,39.2,39.2,0,0,0,.742,7.469,18.683,18.683,0,0,0,3.559,7.781,20.35,20.35,0,0,0,2.209,2.27,2.2,2.2,0,0,0-.2-.547,15.407,15.407,0,0,1-1.612-6.325c.006-.647.073-1.266.117-1.144.017.045.151.457.3.921,1.065,3.413,2.61,5.667,4.947,7.223a7.184,7.184,0,0,0,1.662.9c0-.028-.089-.346-.2-.714-.485-1.623-1.16-4.429-1.445-5.99a42.761,42.761,0,0,1-.781-8.283,29.423,29.423,0,0,1,.279-4.63c.162-1.294.218-1.6.257-1.478.017.045.123.374.234.725a7.891,7.891,0,0,0,1.45,2.705l.2.223.006-.335.006-.335.112.212a4.3,4.3,0,0,0,.937.993l.3.256-.206,1.222c-.19,1.143-.257,1.7-.429,3.414a22.135,22.135,0,0,0,.089,3.637c.184,1.651.469,3.369,1.032,6.331.067.335.19,1.015.279,1.506l.162.887.474.7a8.9,8.9,0,0,0,1.35,1.634,7.885,7.885,0,0,0,1.662,1.015l.491.217.206-.106c.686-.368.575-1.785-.407-5.271a27.274,27.274,0,0,1-.954-4.546,30.147,30.147,0,0,1-.039-6.414,15.962,15.962,0,0,1,.469-1.958c.017-.017.117.006.223.05a5.834,5.834,0,0,0,2.08.34,3.269,3.269,0,0,0,1.684-.279c.017-.045.106-.078.206-.078a4.456,4.456,0,0,0,1.433-.413c.335-.167.379-.179.413-.1.106.273.814,3.157.786,3.219a2.669,2.669,0,0,0,.139.591c.095.29.29,1.038.441,1.668a35.546,35.546,0,0,1,1,10.9c-.028,1.579.006,1.829.251,2.03.134.1.162.1.485.028a2.985,2.985,0,0,0,1.846-1.294,37.766,37.766,0,0,0,1.065-3.782,17.961,17.961,0,0,0,.48-5.093c-.033-.5-.067-.931-.084-.954s-.106-.569-.2-1.21a46.354,46.354,0,0,0-1.645-7.061,2.876,2.876,0,0,1-.212-.865c.045-.106.045-.095,0-.329-.039-.162,0-.212.636-.876.452-.463.664-.725.636-.77-.084-.139-1.724-2.309-2.794-3.7-.591-.77-1.255-1.623-1.473-1.907l-.39-.508.669-2.621c.374-1.445.675-2.666.675-2.722a17,17,0,0,0-.814-1.517c-.446-.781-.8-1.428-.786-1.439.05-.05,3.821,1.774,4.133,2,.1.073.095.106-.156.658-.145.318-.279.614-.3.647-.022.056.095.073.485.073h.513l.368.34a14.4,14.4,0,0,0,1.963,1.467c.324.2.6.374.63.379a11.582,11.582,0,0,1-.128,1.411,34.95,34.95,0,0,0-.357,4.629,16.721,16.721,0,0,0,.206,2.9,29.339,29.339,0,0,0,1.1,5.829,14.14,14.14,0,0,0,.508,1.327l.24.524.218-.441c.865-1.707,1.249-3.285,1.612-6.6l.128-1.2.017,1.478c.078,6.292-1.222,13.242-3.2,17.19a2.431,2.431,0,0,0-.212.491c.061,0,1.311-.787,1.947-1.222a25.774,25.774,0,0,0,4.256-3.709c.926-.926,1.684-1.651,1.684-1.618,0,.106-.324,1.2-.58,1.986-.34,1.015-.759,2.086-1.283,3.274a6.984,6.984,0,0,0-.4,1A4.882,4.882,0,0,0,39.5-1213c2.822-2.85,4.886-7.764,5.466-13.046a36.159,36.159,0,0,0,.223-4.657,35.455,35.455,0,0,0-.223-4.6,72.021,72.021,0,0,0-1.222-7.418c-.8-4.072-1.143-5.929-1.344-7.446a71.584,71.584,0,0,1-.056-7.641c.05-1.445.117-3.375.151-4.295.073-2.186.073-5.762-.006-6.749-.251-3.274-1.9-6.816-3.837-8.283a5,5,0,0,0-2.426-1.009c-1.1-.145-1.913.223-3.157,1.422a15.658,15.658,0,0,0-1.512,1.757c-.039.072-.067.061-.173-.078-.073-.095-.34-.39-.608-.658-2-2.075-4.875-3.313-8.673-3.748A30.245,30.245,0,0,0,18.195-1279.536Zm13.3,19.7a3.671,3.671,0,0,1-.05,1.383c-.073.569-.117,1.127-.112,1.244l.022.218.273-.536c.156-.3.284-.535.29-.535.045,0,1.026,4.228,1.417,6.08a15.338,15.338,0,0,1,.58,4.044,29.173,29.173,0,0,1-.223,3.2,5.363,5.363,0,0,1-1.138-.474,7.306,7.306,0,0,1-1.763-1.222c-.424-.385-.474-.413-.513-.312s-.084.078-.541-.268a24.821,24.821,0,0,0-2.437-1.651,10.508,10.508,0,0,0-3.469-.452l-.77-.033-.089-.156-.089-.156-.268.134c-.446.229-.446.229-.519-.759l-.033-.474.742-.24a18.987,18.987,0,0,0,3.971-1.891,1.958,1.958,0,0,1,.4-.229,2.86,2.86,0,0,1-.084.491,5.622,5.622,0,0,0-.112.558,7.106,7.106,0,0,0,1.277-1.255c1.037-1.3,1.807-2.984,2.833-6.208a6.655,6.655,0,0,1,.3-.848A.946.946,0,0,1,31.5-1259.835Zm-19.3,6.007a16.717,16.717,0,0,0,1.986,1.634,12.95,12.95,0,0,0,3.626,1.551,3.311,3.311,0,0,1,.563.178,4.833,4.833,0,0,1,.184,1.188.969.969,0,0,1-.3-.1c-.151-.067-.284-.095-.3-.067a3.826,3.826,0,0,1-.19.351l-.167.3-.318-.034c-.173-.022-.58-.089-.9-.151-.48-.089-.591-.095-.675-.033-.056.039-.859.686-1.779,1.439s-1.7,1.372-1.729,1.383-.067-.073-.084-.184-.19-.647-.379-1.188c-.954-2.795-1.177-3.481-1.461-4.529-.173-.625-.312-1.166-.312-1.194a2.021,2.021,0,0,1,.312.446c.173.273.469.719.658,1l.34.5.033-1.528c.022-.842.039-1.6.045-1.685.006-.15.011-.15.24.112C11.725-1254.3,11.992-1254.023,12.193-1253.828Zm3.347,9.582a42.218,42.218,0,0,0-.591,6.827c-.033,1.657-.033,1.657.084,1.729.156.1.156.134-.05.591-.218.48-1.294,3.179-1.612,4.049a3.576,3.576,0,0,1-.268.63c-.011-.017.006-1.679.045-3.7a65.253,65.253,0,0,0-.106-7.1,2.223,2.223,0,0,1-.028-.441.882.882,0,0,1,.279.128,2.793,2.793,0,0,0,.279.145c.006,0-.145-.279-.346-.625s-.357-.641-.357-.658c0-.067,2.638-1.941,2.739-1.952A.98.98,0,0,1,15.54-1244.246Z" transform="translate(-0.219 1279.567)" fill="#fff"/></svg>