<svg xmlns="http://www.w3.org/2000/svg" xmlns:xlink="http://www.w3.org/1999/xlink" width="97" height="75" viewBox="0 0 97 75"><defs><clipPath id="a"><rect width="97" height="75" transform="translate(0 0.3)" fill="#fff"/></clipPath></defs><g transform="translate(0 -0.3)" clip-path="url(#a)"><path d="M81.886,6.524A79.767,79.767,0,0,0,62.2.417a.3.3,0,0,0-.316.15A55.564,55.564,0,0,0,59.429,5.6a73.64,73.64,0,0,0-22.114,0A50.961,50.961,0,0,0,34.825.566a.311.311,0,0,0-.316-.15A79.545,79.545,0,0,0,14.82,6.524a.282.282,0,0,0-.13.111C2.15,25.37-1.286,43.644.4,61.692a.332.332,0,0,0,.126.226,80.213,80.213,0,0,0,24.154,12.21.313.313,0,0,0,.339-.111,57.331,57.331,0,0,0,4.941-8.037.306.306,0,0,0-.168-.426,52.823,52.823,0,0,1-7.545-3.6.31.31,0,0,1-.031-.514c.507-.38,1.014-.775,1.5-1.175a.3.3,0,0,1,.313-.042,57.2,57.2,0,0,0,48.612,0,.3.3,0,0,1,.316.038c.484.4.991.8,1.5,1.178a.31.31,0,0,1-.027.514,49.567,49.567,0,0,1-7.549,3.593.309.309,0,0,0-.164.43,64.371,64.371,0,0,0,4.937,8.034.307.307,0,0,0,.339.115,79.947,79.947,0,0,0,24.192-12.21.31.31,0,0,0,.126-.223c2.017-20.865-3.378-38.99-14.3-55.057A.246.246,0,0,0,81.886,6.524ZM32.324,50.7c-4.766,0-8.693-4.376-8.693-9.749S27.482,31.2,32.324,31.2c4.88,0,8.769,4.414,8.693,9.749C41.017,46.327,37.166,50.7,32.324,50.7Zm32.141,0c-4.766,0-8.693-4.376-8.693-9.749S59.623,31.2,64.465,31.2c4.88,0,8.769,4.414,8.693,9.749C73.158,46.327,69.346,50.7,64.465,50.7Z" transform="translate(0 0.149)" fill="#fff"/></g></svg>