<svg xmlns="http://www.w3.org/2000/svg" width="287.496" height="296.686" viewBox="0 0 287.496 296.686"><path d="M112.953,37.887S85.421,6.818,70.013,23.994c-.253-.253,17.176,20.46,2.021,44.708S13.685,91.436,2.066,58.6,29.6-9.348,75.317,2.272C102.85,11.112,111.69,32.583,112.953,37.887Z" transform="matrix(-0.966, 0.259, -0.259, -0.966, 250.337, 267.451)" fill="#eb459e"/><path d="M112.953,37.887S85.421,6.818,70.013,23.994c-.253-.253,17.176,20.46,2.021,44.708S13.685,91.436,2.066,58.6,29.6-9.348,75.317,2.272C102.85,11.112,111.69,32.583,112.953,37.887Z" transform="translate(0 192.746) rotate(-79)" fill="#eb459e"/><g transform="translate(142.68 101.301) rotate(30)" fill="#eb459e" stroke="#707070" stroke-width="1"><ellipse cx="31.126" cy="31.126" rx="31.126" ry="31.126" stroke="none"/><ellipse cx="31.126" cy="31.126" rx="30.626" ry="30.626" fill="none"/></g><path d="M112.953,37.887S85.421,6.818,70.013,23.994c-.253-.253,17.176,20.46,2.021,44.708S13.685,91.436,2.066,58.6,29.6-9.348,75.317,2.272C102.85,11.112,111.69,32.583,112.953,37.887Z" transform="translate(189.676 0) rotate(30)" fill="#eb459e"/></svg>