<svg xmlns="http://www.w3.org/2000/svg" width="260.607" height="495.059" viewBox="0 0 260.607 495.059"><g transform="translate(129.158 229.004) rotate(-27)" fill="#eb459e" stroke="#707070" stroke-width="1" opacity="0.31"><ellipse cx="48.866" cy="48.866" rx="48.866" ry="48.866" stroke="none"/><ellipse cx="48.866" cy="48.866" rx="48.366" ry="48.366" fill="none"/></g><path d="M177.332,59.481S134.107,10.7,109.917,37.67c-.4-.4,26.966,32.121,3.172,70.19S21.485,143.551,3.244,92s43.225-106.674,115-88.432C161.47,17.446,175.349,51.153,177.332,59.481Z" transform="matrix(-0.719, -0.695, 0.695, -0.719, 127.562, 495.059)" fill="#eb459e" opacity="0.31"/><path d="M177.332,59.481S134.107,10.7,109.917,37.67c-.4-.4,26.966,32.121,3.172,70.19S21.485,143.551,3.244,92s43.225-106.674,115-88.432C161.47,17.446,175.349,51.153,177.332,59.481Z" transform="translate(35.962 80.507) rotate(-27)" fill="#eb459e" opacity="0.31"/></svg>