<svg xmlns="http://www.w3.org/2000/svg" width="70.619" height="77.359" viewBox="0 0 70.619 77.359"><path d="M89.9,46.967a10.324,10.324,0,0,0-9.564-2.741A25.14,25.14,0,0,0,77.7,35.488a15.918,15.918,0,0,0,4.733-11.1A14.863,14.863,0,0,0,80.985,18a12.225,12.225,0,0,0-21.045-12.4,32.958,32.958,0,0,0-4.682,0A12.224,12.224,0,0,0,34.214,18a14.863,14.863,0,0,0-1.45,6.385A15.919,15.919,0,0,0,37.5,35.488a25.139,25.139,0,0,0-2.634,8.73,10.268,10.268,0,0,0-7.851,18.647L39.8,71.072a1.512,1.512,0,0,0,.817.239h3.921L41.07,74.778a1.512,1.512,0,1,0,2.138,2.138l3.769-3.769v2.7a1.512,1.512,0,1,0,3.024,0v-2.7l3.769,3.769a1.512,1.512,0,1,0,2.138-2.138l-3.467-3.467H62.758l-3.466,3.467a1.512,1.512,0,1,0,2.138,2.138L65.2,73.147v2.7a1.512,1.512,0,0,0,3.024,0v-2.7l3.769,3.769a1.512,1.512,0,0,0,2.138-2.138l-3.467-3.467h3.921a1.512,1.512,0,0,0,.817-.239l12.788-8.207a10.265,10.265,0,0,0,1.714-15.9ZM48.489,67.985a2.119,2.119,0,0,1-2.117-2.117v-13a2.117,2.117,0,1,1,4.233,0v13A2.119,2.119,0,0,1,48.489,67.985Zm0-20.259a5.146,5.146,0,0,0-5.14,5.14v8.992a22.062,22.062,0,0,1-5.626-14.767,22.321,22.321,0,0,1,2.108-9.5,26.921,26.921,0,0,0,10.632,4.878,1.512,1.512,0,0,0,.668-2.949c-7.21-1.634-12.684-5.929-14.6-11.086,5.2,2.3,14.672,3.017,21.069,3.017s15.867-.717,21.07-3.017C76.751,33.6,71.262,37.9,64.031,39.528a1.512,1.512,0,1,0,.664,2.95,26.931,26.931,0,0,0,10.674-4.887,22.322,22.322,0,0,1,2.108,9.5,22.061,22.061,0,0,1-5.626,14.767V52.866a5.14,5.14,0,0,0-10.281,0v13a5.107,5.107,0,0,0,.606,2.419H53.024a5.108,5.108,0,0,0,.606-2.419v-13a5.146,5.146,0,0,0-5.14-5.14ZM68.827,65.869a2.117,2.117,0,1,1-4.233,0v-13a2.117,2.117,0,1,1,4.233,0ZM44.989,3.024a9.194,9.194,0,0,1,8.119,4.87,1.51,1.51,0,0,0,1.485.791,30.109,30.109,0,0,1,6.015,0,1.512,1.512,0,0,0,1.485-.791,9.2,9.2,0,1,1,15.9,9.243,1.512,1.512,0,0,0-.055,1.524,12,12,0,0,1,1.477,5.7c-.131.358-1.521,1.56-6.223,2.606A75.108,75.108,0,0,1,57.6,28.426a75.119,75.119,0,0,1-15.588-1.458c-4.7-1.046-6.092-2.248-6.223-2.606a12,12,0,0,1,1.477-5.7,1.512,1.512,0,0,0-.055-1.524A9.2,9.2,0,0,1,44.989,3.024ZM28.645,60.32A7.243,7.243,0,0,1,34.7,47.307a25.121,25.121,0,0,0,1.914,9.5l-3.232-3.245A1.512,1.512,0,0,0,31.241,55.7l12.541,12.59H41.06ZM89.843,55a7.208,7.208,0,0,1-3.288,5.318L74.14,68.288H71.417L83.959,55.7a1.512,1.512,0,0,0-2.142-2.134l-3.232,3.245a25.124,25.124,0,0,0,1.914-9.5A7.244,7.244,0,0,1,89.843,55Z" transform="translate(-22.29 0)" fill="#fff"/><path d="M145.262,58.533a4.838,4.838,0,1,0-4.838-4.838A4.843,4.843,0,0,0,145.262,58.533Zm0-6.652a1.814,1.814,0,1,1-1.814,1.814A1.816,1.816,0,0,1,145.262,51.881Z" transform="translate(-122.564 -41.47)" fill="#fff"/><path d="M312.086,58.533a4.838,4.838,0,1,0-4.838-4.838A4.843,4.843,0,0,0,312.086,58.533Zm0-6.652a1.814,1.814,0,1,1-1.814,1.814A1.816,1.816,0,0,1,312.086,51.881Z" transform="translate(-264.166 -41.47)" fill="#fff"/><path d="M247.348,269.129a1.512,1.512,0,1,0-1.069-.443A1.523,1.523,0,0,0,247.348,269.129Z" transform="translate(-212.038 -225.873)" fill="#fff"/></svg>