<svg xmlns="http://www.w3.org/2000/svg" width="72.94" height="47.597" viewBox="0 0 72.94 47.597"><g transform="translate(25.37)"><g transform="translate(0 0)"><ellipse cx="11.1" cy="11.106" rx="11.1" ry="11.106" fill="#fff"/></g></g><g transform="translate(50.741 12.693)"><g transform="translate(0 0)"><ellipse cx="7.928" cy="7.933" rx="7.928" ry="7.933" fill="#fff"/></g></g><g transform="translate(6.568 12.693)"><g transform="translate(0 0)"><ellipse cx="7.928" cy="7.933" rx="7.928" ry="7.933" fill="#fff"/></g></g><g transform="translate(15.856 25.385)"><g transform="translate(0 0)"><path d="M127.279,256a20.643,20.643,0,0,0-20.613,20.625,1.587,1.587,0,0,0,1.586,1.587h38.056a1.587,1.587,0,0,0,1.586-1.587A20.643,20.643,0,0,0,127.279,256Z" transform="translate(-106.666 -256)" fill="#fff"/></g></g><g transform="translate(0 31.731)"><g transform="translate(0 0)"><path d="M17.23,299.01a14.218,14.218,0,0,0-2.959-.343A14.292,14.292,0,0,0,0,312.946a1.587,1.587,0,0,0,1.586,1.587H12.977a4.707,4.707,0,0,1-.292-1.587A23.658,23.658,0,0,1,17.23,299.01Z" transform="translate(0 -298.667)" fill="#fff"/></g></g><g transform="translate(55.71 31.731)"><g transform="translate(0 0)"><path d="M377.722,298.667a14.218,14.218,0,0,0-2.959.343,23.658,23.658,0,0,1,4.545,13.936,4.707,4.707,0,0,1-.292,1.587h11.391a1.587,1.587,0,0,0,1.586-1.587A14.292,14.292,0,0,0,377.722,298.667Z" transform="translate(-374.763 -298.667)" fill="#fff"/></g></g></svg>